<?xml version="1.0" encoding="UTF-8" standalone="no"?>
<svg style="animation:all 1s forwards .6s" viewBox="0 0 61.721928 41.814247" xmlns="http://www.w3.org/2000/svg">
	<defs>
		<style>
			@keyframes all {
				50% {
					transform: translateX(calc(100% * 16.118129 / 61.721928))
				}
				100% {
					transform: translateX(calc(100% * 16.118129 / 61.721928))
				}
			}
			@keyframes hit {
				100% {
					transform: rotate(0);
				}
			}
			@keyframes blow {
				100% {
					transform: rotate(90deg);
				}
			}
		</style>
	</defs>
	<g style="animation:hit 1s forwards;transform-origin:calc(100% * 24.701453 / 61.721928) calc(100% * 4.794247 / 41.814247);transform: rotate(-180deg)">
		<path d="m 0.17993,9.387416 q -0.09525,-0.592667 -0.137583,-1.449917 -0.04233,-0.85725 -0.04233,-1.852083 0,-1.026583 0.03175,-2.106083 0.04233,-1.0795 0.09525,-2.074333 0.0635,-1.005417 0.137584,-1.778 l 1.8415,0.03175 q -0.116417,0.740833 -0.1905,1.651 -0.0635,0.899583 -0.105834,1.87325 0.751417,-0.105834 1.629834,-0.15875 0.878416,-0.05292 1.693333,-0.05292 0.391583,0 0.751417,0.02117 -0.01058,-0.79375 -0.03175,-1.481667 -0.02117,-0.687917 -0.05292,-1.164167 -0.03175,-0.47625 -0.07408,-0.656166 l 1.820333,-0.116417 q 0.09525,0.889 0.148167,2.12725 0.0635,1.23825 0.0635,2.624667 0,1.121833 -0.04233,2.285999 -0.04233,1.153584 -0.148166,2.2225 h -1.767417 q 0.04233,-0.338666 0.0635,-0.92075 0.02117,-0.592666 0.03175,-1.3335 0.01058,-0.751416 0.01058,-1.566333 0,-0.148167 0,-0.306917 -0.201083,0 -0.41275,0 -0.201083,-0.01058 -0.41275,-0.01058 -0.836083,0 -1.693333,0.0635 -0.846667,0.05292 -1.61925,0.15875 0,0.338667 0,0.677333 0,0.931334 0.01058,1.74625 0.02117,0.814917 0.0635,1.481667 z"/>
		<path d="m 8.985226,1.788583 q 0,-0.09525 -0.01058,-0.1905 0,-0.105833 0,-0.232833 0,-0.338667 0.02117,-0.719667 0.02117,-0.381 0.04233,-0.645583 l 1.883833,0.03175 q -0.03175,0.359833 -0.07408,0.814916 -0.03175,0.455084 -0.04233,0.941917 z m -0.04233,7.577666 q -0.03175,-0.656166 -0.04233,-1.397 -0.01058,-0.751416 -0.01058,-1.502833 0,-0.98425 0.02117,-1.915583 0.02117,-0.931333 0.05292,-1.693333 l 1.820333,-0.01058 q -0.04233,0.486834 -0.05292,1.2065 -0.01058,0.709084 -0.01058,1.49225 0,0.772583 0.01058,1.524 0.01058,0.751417 0.02117,1.36525 0.02117,0.60325 0.03175,0.931333 z"/>
		<path d="m 14.985975,9.461499 q -0.635,0 -1.005416,-0.275166 -0.370417,-0.264584 -0.53975,-0.740834 -0.169334,-0.47625 -0.22225,-1.090083 -0.04233,-0.613833 -0.04233,-1.291167 0,-0.6985 0.05292,-1.449916 -0.709083,0.09525 -1.36525,0.243417 l -0.328083,-1.661584 q 0.878416,-0.232833 1.87325,-0.338666 0.07408,-0.53975 0.15875,-1.132417 0.08467,-0.60325 0.1905,-1.27 l 1.820333,0.15875 q -0.127,0.550333 -0.22225,1.100667 -0.09525,0.53975 -0.169333,1.04775 0.592666,0 1.11125,0.03175 0.529166,0.02117 0.973666,0.08467 l -0.211666,1.661584 q -0.370417,-0.04233 -0.772584,-0.05292 -0.391583,-0.02117 -0.79375,-0.02117 -0.243416,0 -0.486833,0.01058 -0.0635,0.772583 -0.08467,1.322916 -0.01058,0.550333 -0.01058,0.783167 0,0.582083 0.0635,0.836083 0.07408,0.254 0.232833,0.254 0.179917,0 0.402167,-0.116417 0.22225,-0.127 0.433917,-0.338666 0.22225,-0.211667 0.370416,-0.455084 l 0.814917,1.703917 q -1.04775,0.994833 -2.243667,0.994833 z"/>
	</g>
	<path d="m 28.193954,9.567333 q -0.264583,-0.169334 -0.783167,-0.497417 -0.508,-0.328083 -1.153583,-0.783167 -0.529167,0.550334 -1.27,0.85725 -0.740833,0.3175 -1.767417,0.3175 -1.407583,0 -2.211916,-0.645583 -0.804333,-0.645583 -0.804333,-1.778 0,-0.148167 0.03175,-0.433917 0.03175,-0.28575 0.1905,-0.656166 0.15875,-0.370417 0.518583,-0.772584 0.370417,-0.402166 1.026583,-0.783166 l 0.04233,-0.02117 q -0.296334,-0.4445 -0.465667,-0.878416 -0.169333,-0.433917 -0.169333,-0.846667 0,-0.762 0.28575,-1.27 0.296333,-0.508 0.761999,-0.804333 0.465667,-0.296334 1.005417,-0.423334 0.550333,-0.127 1.04775,-0.127 0.455083,0 0.931333,0.105834 0.47625,0.105833 0.878417,0.338666 0.402167,0.22225 0.645583,0.60325 0.243417,0.370417 0.243417,0.910167 0,0.592667 -0.22225,1.037167 -0.22225,0.433916 -0.687917,0.804333 -0.465666,0.370417 -1.195916,0.783167 -0.169334,0.09525 -0.370417,0.1905 0.254,0.243416 0.560917,0.507999 0.306916,0.254 0.624416,0.518584 0.169334,-0.370417 0.296334,-0.8255 0.127,-0.465667 0.22225,-1.005417 l 1.640416,0.28575 q -0.15875,0.6985 -0.359833,1.354667 -0.1905,0.656166 -0.465667,1.227666 0.582084,0.423334 1.090084,0.772584 0.518583,0.338666 0.846666,0.508 z M 23.061037,2.4765 q 0,0.338666 0.127,0.613833 0.137584,0.275167 0.328084,0.508 0.550333,-0.275167 0.98425,-0.518583 0.433916,-0.243417 0.687916,-0.508 0.254,-0.264584 0.254,-0.592667 0,-0.381 -0.9525,-0.381 -0.127,0 -0.359833,0.03175 -0.232833,0.03175 -0.47625,0.127 -0.243417,0.08467 -0.423333,0.264583 -0.169334,0.169334 -0.169334,0.455084 z m -1.248833,4.487333 q 0,0.486833 0.328083,0.709083 0.338667,0.22225 1.121834,0.22225 0.402166,0 0.814916,-0.148167 0.423334,-0.148166 0.814917,-0.486833 -0.486833,-0.381 -0.973667,-0.804333 -0.47625,-0.423334 -0.889,-0.85725 -0.529166,0.264583 -0.878416,0.592666 -0.338667,0.328084 -0.338667,0.772584 z"/>
	<g style="animation:blow 1s forwards .4s;transform-origin:calc(100% * 24.701453 / 61.721928) calc(100% * 4.794247 / 41.814247)">
		<path d="m 32.353182,9.355666 q -0.01058,-0.116417 -0.01058,-0.254 0,-0.137583 0,-0.3175 0,-0.455083 0.02117,-1.0795 0.02117,-0.635 0.0635,-1.344083 0.04233,-0.719667 0.08467,-1.439333 0.04233,-0.73025 0.08467,-1.397 0.05292,-0.66675 0.09525,-1.195917 -0.232833,0.07408 -0.41275,0.137583 l -0.275166,-1.778 q 1.195916,-0.338666 2.2225,-0.508 1.037166,-0.169333 1.87325,-0.169333 1.703916,0 2.603499,0.645583 0.899584,0.645584 0.899584,1.87325 0,0.6985 -0.306917,1.17475 -0.306917,0.465667 -0.867833,0.772584 1.375833,0.698499 1.375833,2.275416 0,0.6985 -0.264583,1.17475 -0.254,0.465667 -0.656167,0.751417 -0.402167,0.28575 -0.85725,0.423333 -0.4445,0.148167 -0.846667,0.1905 -0.391583,0.05292 -0.613833,0.05292 -0.550333,0 -1.17475,-0.105834 -0.624416,-0.105833 -1.217083,-0.3175 0,0.211667 0,0.402167 z m 3.788833,-7.577666 q -0.381,0 -0.804333,0.04233 -0.41275,0.03175 -0.8255,0.105833 -0.0635,0.772584 -0.127,1.799167 0.137583,0.01058 0.275166,0.01058 0.148167,0 0.296334,0 2.793999,0 2.793999,-1.143 0,-0.381 -0.433916,-0.592666 -0.423334,-0.22225 -1.17475,-0.22225 z m -0.941917,3.630083 q -0.22225,0 -0.455083,0 -0.22225,0 -0.455083,0.01058 -0.02117,0.465667 -0.04233,0.931333 -0.01058,0.465667 -0.03175,0.92075 0.592667,0.179917 1.164167,0.264584 0.5715,0.07408 0.98425,0.07408 0.878416,0 1.259416,-0.211667 0.381,-0.22225 0.381,-0.719666 0,-0.613834 -0.73025,-0.941917 -0.719666,-0.328083 -2.074333,-0.328083 z"/>
		<path d="m 42.830664,9.461499 q -0.582084,0 -0.963084,-0.254 -0.370416,-0.243416 -0.592666,-0.677333 -0.211667,-0.433917 -0.3175,-0.994833 -0.09525,-0.560917 -0.127,-1.195917 -0.02117,-0.645583 -0.02117,-1.291166 0,-0.560917 0.03175,-1.227667 0.03175,-0.677333 0.07408,-1.36525 0.05292,-0.6985 0.105833,-1.312333 0.0635,-0.613834 0.116417,-1.068917 l 1.915583,0.02117 q -0.08467,0.53975 -0.15875,1.227666 -0.07408,0.677334 -0.127,1.375834 -0.04233,0.6985 -0.07408,1.291166 -0.02117,0.592667 -0.02117,0.941917 0,0.963083 0.03175,1.513416 0.04233,0.550334 0.116416,0.783167 0.08467,0.22225 0.22225,0.22225 0.179917,0 0.391584,-0.22225 0.211666,-0.232833 0.41275,-0.518583 l 0.899583,1.788583 q -0.328083,0.359833 -0.783167,0.656167 -0.455083,0.306916 -1.132416,0.306916 z"/>
		<path d="m 48.799663,9.493249 q -0.846666,0 -1.481666,-0.275166 -0.624417,-0.275167 -1.037167,-0.751417 -0.41275,-0.486833 -0.613833,-1.11125 -0.201083,-0.624417 -0.201083,-1.312333 0,-0.6985 0.243416,-1.291167 0.254,-0.60325 0.687917,-1.04775 0.4445,-0.4445 1.037166,-0.687916 0.592667,-0.254 1.291167,-0.254 0.730248,0 1.354668,0.254 0.62442,0.254 1.09008,0.709083 0.46567,0.455083 0.71967,1.068917 0.26458,0.613833 0.26458,1.333499 0,1.598084 -0.87841,2.487084 -0.87842,0.878416 -2.476505,0.878416 z m -0.01058,-1.7145 q 0.772585,0 1.174745,-0.433916 0.41275,-0.433917 0.41275,-1.248834 0,-0.73025 -0.4445,-1.174749 -0.4445,-0.4445 -1.164162,-0.4445 -0.433916,0 -0.79375,0.232833 -0.359833,0.22225 -0.582083,0.60325 -0.211667,0.370416 -0.211667,0.8255 0,0.402166 0.15875,0.783166 0.169334,0.381 0.529167,0.624417 0.359833,0.232833 0.92075,0.232833 z"/>
		<path d="m 55.329568,9.493249 q -0.87841,0 -1.49225,-1.36525 -0.21166,-0.486833 -0.37041,-1.068916 -0.15875,-0.582084 -0.27517,-1.185334 -0.10583,-0.60325 -0.17992,-1.153583 -0.0635,-0.560916 -0.10583,-0.98425 -0.0318,-0.433916 -0.0529,-0.656166 l 1.73567,-0.402167 q 0.127,2.402417 0.381,3.65125 0.26458,1.248833 0.40217,1.248833 0.0741,0 0.17991,-0.296333 0.11642,-0.296334 0.254,-0.783167 0.13759,-0.497417 0.26459,-1.090083 0.127,-0.592667 0.22225,-1.195917 -0.127,-0.772583 -0.16934,-1.227666 l 1.78859,-0.0635 v 0.127 q 0,0.433916 0.0635,1.016 0.0635,0.582083 0.15875,1.206499 0.0952,0.613834 0.20108,1.143 0.11642,0.529167 0.22225,0.85725 0.10583,0.328084 0.17992,0.328084 0.0635,0 0.17991,-0.28575 0.11642,-0.28575 0.254,-0.783167 0.14817,-0.497417 0.29634,-1.132417 0.14816,-0.645583 0.28575,-1.354666 0.13758,-0.719667 0.22225,-1.42875 l 1.74625,0.370417 q -0.17992,1.005416 -0.43392,2.00025 -0.24342,0.984249 -0.51858,1.830916 -0.27517,0.836083 -0.53975,1.407583 -0.59267,1.259417 -1.47109,1.259417 -0.28575,0 -0.65616,-0.179917 -0.35984,-0.169333 -0.66675,-0.719666 -0.10584,-0.201084 -0.21167,-0.486834 -0.10583,-0.28575 -0.20108,-0.635 -0.127,0.391584 -0.254,0.6985 -0.56092,1.3335 -1.43934,1.3335 z"/>
	</g>
</svg>
