<?xml version="1.0"?><svg viewBox="0 0 35.952 35.952" xmlns="http://www.w3.org/2000/svg"><path d="m 9.678658,9.387832 q -0.09525,-0.592667 -0.137584,-1.449917 -0.04233,-0.85725 -0.04233,-1.852083 0,-1.026583 0.03175,-2.106083 0.04233,-1.0795 0.09525,-2.074334 0.0635,-1.005416 0.137583,-1.778 l 1.8415,0.03175 q -0.116416,0.740834 -0.1905,1.651 -0.0635,0.899584 -0.105833,1.87325 0.751417,-0.105833 1.629833,-0.15875 0.878417,-0.05292 1.693334,-0.05292 0.391583,0 0.751416,0.02117 -0.01058,-0.79375 -0.03175,-1.481666 -0.02117,-0.687917 -0.05292,-1.164167 -0.03175,-0.47625 -0.07408,-0.656167 l 1.820334,-0.116416 q 0.09525,0.889 0.148166,2.12725 0.0635,1.23825 0.0635,2.624666 0,1.121834 -0.04233,2.286 -0.04233,1.153584 -0.148167,2.2225 h -1.767416 q 0.04233,-0.338666 0.0635,-0.92075 0.02117,-0.592666 0.03175,-1.3335 0.01058,-0.751416 0.01058,-1.566333 0,-0.148167 0,-0.306917 -0.201083,0 -0.41275,0 -0.201083,-0.01058 -0.41275,-0.01058 -0.836083,0 -1.693333,0.0635 -0.846667,0.05292 -1.61925,0.15875 0,0.338667 0,0.677333 0,0.931334 0.01058,1.74625 0.02117,0.814917 0.0635,1.481667 z"/><path d="m 18.48397,1.788999 q 0,-0.09525 -0.01058,-0.1905 0,-0.105834 0,-0.232834 0,-0.338666 0.02117,-0.719666 0.02117,-0.381 0.04233,-0.645584 l 1.883833,0.03175 q -0.03175,0.359834 -0.07408,0.814917 -0.03175,0.455083 -0.04233,0.941917 z m -0.04233,7.577666 q -0.03175,-0.656166 -0.04233,-1.397 -0.01058,-0.751416 -0.01058,-1.502833 0,-0.98425 0.02117,-1.915583 0.02117,-0.931334 0.05292,-1.693334 l 1.820333,-0.01058 q -0.04233,0.486833 -0.05292,1.2065 -0.01058,0.709083 -0.01058,1.49225 0,0.772583 0.01058,1.524 0.01058,0.751417 0.02117,1.36525 0.02117,0.60325 0.03175,0.931333 z"/><path d="m 24.48472,9.461915 q -0.635,0 -1.005417,-0.275166 -0.370416,-0.264584 -0.53975,-0.740834 -0.169333,-0.47625 -0.22225,-1.090083 -0.04233,-0.613833 -0.04233,-1.291167 0,-0.6985 0.05292,-1.449916 -0.709084,0.09525 -1.36525,0.243416 L 21.034553,3.196582 q 0.878417,-0.232833 1.87325,-0.338667 0.07408,-0.53975 0.15875,-1.132416 0.08467,-0.60325 0.1905,-1.27 l 1.820334,0.15875 q -0.127,0.550333 -0.22225,1.100666 -0.09525,0.53975 -0.169334,1.04775 0.592667,0 1.11125,0.03175 0.529167,0.02117 0.973667,0.08467 l -0.211667,1.661583 q -0.370416,-0.04233 -0.772583,-0.05292 -0.391583,-0.02117 -0.79375,-0.02117 -0.243417,0 -0.486833,0.01058 -0.0635,0.772584 -0.08467,1.322917 -0.01058,0.550333 -0.01058,0.783167 0,0.582083 0.0635,0.836083 0.07408,0.254 0.232833,0.254 0.179917,0 0.402167,-0.116417 0.22225,-0.127 0.433916,-0.338666 0.22225,-0.211667 0.370417,-0.455084 l 0.814917,1.703917 q -1.04775,0.994833 -2.243667,0.994833 z"/><path d="m 21.595481,22.79691 q -0.264584,-0.16933 -0.783167,-0.49741 -0.508,-0.32809 -1.153583,-0.78317 -0.529167,0.55033 -1.27,0.85725 -0.740833,0.3175 -1.767417,0.3175 -1.407583,0 -2.211916,-0.64558 -0.804334,-0.64559 -0.804334,-1.778 0,-0.14817 0.03175,-0.43392 0.03175,-0.28575 0.1905,-0.65617 0.15875,-0.37041 0.518584,-0.77258 0.370416,-0.40217 1.026583,-0.78317 l 0.04233,-0.0212 q -0.296333,-0.4445 -0.465666,-0.87842 -0.169334,-0.433915 -0.169334,-0.846665 0,-0.762 0.28575,-1.27 0.296334,-0.508 0.762,-0.804333 0.465667,-0.296334 1.005417,-0.423334 0.550333,-0.127 1.04775,-0.127 0.455083,0 0.931333,0.105834 0.47625,0.105833 0.878417,0.338666 0.402167,0.22225 0.645583,0.60325 0.243417,0.370417 0.243417,0.910167 0,0.592667 -0.22225,1.037167 -0.22225,0.433918 -0.687917,0.804328 -0.465666,0.37042 -1.195916,0.78317 -0.169334,0.0953 -0.370417,0.1905 0.254,0.24342 0.560917,0.508 0.306916,0.254 0.624416,0.51858 0.169334,-0.37041 0.296334,-0.8255 0.127,-0.46566 0.22225,-1.00541 l 1.640416,0.28575 q -0.15875,0.6985 -0.359833,1.35466 -0.1905,0.65617 -0.465667,1.22767 0.582084,0.42333 1.090083,0.77258 0.518584,0.33867 0.846667,0.508 z m -5.132917,-7.090828 q 0,0.338666 0.127,0.613833 0.137584,0.275165 0.328084,0.507995 0.550333,-0.27516 0.98425,-0.518578 0.433916,-0.243417 0.687916,-0.508 0.254,-0.264584 0.254,-0.592667 0,-0.381 -0.9525,-0.381 -0.127,0 -0.359833,0.03175 -0.232833,0.03175 -0.47625,0.127 -0.243417,0.08467 -0.423333,0.264583 -0.169334,0.169334 -0.169334,0.455084 z m -1.248833,4.487328 q 0,0.48684 0.328083,0.70909 0.338667,0.22225 1.121834,0.22225 0.402166,0 0.814916,-0.14817 0.423334,-0.14817 0.814917,-0.48683 -0.486833,-0.381 -0.973667,-0.80434 -0.47625,-0.42333 -0.889,-0.85725 -0.529166,0.26459 -0.878416,0.59267 -0.338667,0.32808 -0.338667,0.77258 z"/><path d="m 3.466251,35.81441 q -0.01058,-0.11641 -0.01058,-0.254 0,-0.13758 0,-0.3175 0,-0.45508 0.02117,-1.0795 0.02117,-0.635 0.0635,-1.34408 0.04233,-0.71967 0.08467,-1.43933 0.04233,-0.73025 0.08467,-1.397 0.05292,-0.66675 0.09525,-1.19592 -0.232834,0.0741 -0.41275,0.13758 l -0.275167,-1.778 q 1.195917,-0.33866 2.2225,-0.508 1.037167,-0.16933 1.87325,-0.16933 1.703916,0 2.6035,0.64558 0.899583,0.64559 0.899583,1.87325 0,0.6985 -0.306917,1.17475 -0.306916,0.46567 -0.867833,0.77259 1.375833,0.6985 1.375833,2.27541 0,0.6985 -0.264583,1.17475 -0.254,0.46567 -0.656167,0.75142 -0.402166,0.28575 -0.85725,0.42333 -0.444499,0.14817 -0.846666,0.1905 -0.391583,0.0529 -0.613833,0.0529 -0.550334,0 -1.17475,-0.10583 -0.624417,-0.10584 -1.217084,-0.3175 0,0.21166 0,0.40216 z m 3.788833,-7.57766 q -0.381,0 -0.804333,0.0423 -0.41275,0.0318 -0.8255,0.10583 -0.0635,0.77259 -0.127,1.79917 0.137583,0.0106 0.275167,0.0106 0.148166,0 0.296333,0 2.794,0 2.794,-1.143 0,-0.381 -0.433917,-0.59266 -0.423333,-0.22225 -1.17475,-0.22225 z m -0.941916,3.63008 q -0.22225,0 -0.455084,0 -0.22225,0 -0.455083,0.0106 -0.02117,0.46567 -0.04233,0.93134 -0.01058,0.46566 -0.03175,0.92075 0.592666,0.17991 1.164166,0.26458 0.5715,0.0741 0.98425,0.0741 0.878417,0 1.259417,-0.21166 0.381,-0.22225 0.381,-0.71967 0,-0.61383 -0.73025,-0.94192 -0.719667,-0.32808 -2.074333,-0.32808 z"/><path d="m 13.943732,35.92025 q -0.582083,0 -0.963083,-0.254 -0.370417,-0.24342 -0.592667,-0.67734 -0.211666,-0.43391 -0.3175,-0.99483 -0.09525,-0.56092 -0.127,-1.19592 -0.02117,-0.64558 -0.02117,-1.29116 0,-0.56092 0.03175,-1.22767 0.03175,-0.67733 0.07408,-1.36525 0.05292,-0.6985 0.105833,-1.31233 0.0635,-0.61384 0.116417,-1.06892 l 1.915583,0.0212 q -0.08467,0.53975 -0.15875,1.22766 -0.07408,0.67734 -0.127,1.37584 -0.04233,0.6985 -0.07408,1.29116 -0.02117,0.59267 -0.02117,0.94192 0,0.96308 0.03175,1.51342 0.04233,0.55033 0.116417,0.78316 0.08467,0.22225 0.22225,0.22225 0.179917,0 0.391583,-0.22225 0.211667,-0.23283 0.41275,-0.51858 l 0.899583,1.78858 q -0.328083,0.35984 -0.783166,0.65617 -0.455083,0.30692 -1.132417,0.30692 z"/><path d="m 19.912731,35.952 q -0.846667,0 -1.481667,-0.27517 -0.624416,-0.27517 -1.037166,-0.75142 -0.41275,-0.48683 -0.613834,-1.11125 -0.201083,-0.62441 -0.201083,-1.31233 0,-0.6985 0.243417,-1.29117 0.254,-0.60325 0.687916,-1.04775 0.4445,-0.4445 1.037167,-0.68791 0.592667,-0.254 1.291167,-0.254 0.73025,0 1.354666,0.254 0.624417,0.254 1.090083,0.70908 0.465667,0.45508 0.719667,1.06892 0.264583,0.61383 0.264583,1.3335 0,1.59808 -0.878416,2.48708 -0.878417,0.87842 -2.4765,0.87842 z m -0.01058,-1.7145 q 0.772583,0 1.17475,-0.43392 0.41275,-0.43392 0.41275,-1.24883 0,-0.73025 -0.4445,-1.17475 -0.4445,-0.4445 -1.164167,-0.4445 -0.433917,0 -0.79375,0.23283 -0.359833,0.22225 -0.582083,0.60325 -0.211667,0.37042 -0.211667,0.8255 0,0.40217 0.15875,0.78317 0.169333,0.381 0.529167,0.62441 0.359833,0.23284 0.92075,0.23284 z"/><path d="m 26.442641,35.952 q -0.878417,0 -1.49225,-1.36525 -0.211667,-0.48684 -0.370417,-1.06892 -0.15875,-0.58208 -0.275166,-1.18533 -0.105834,-0.60325 -0.179917,-1.15359 -0.0635,-0.56091 -0.105833,-0.98425 -0.03175,-0.43391 -0.05292,-0.65616 l 1.735667,-0.40217 q 0.126999,2.40242 0.380999,3.65125 0.264584,1.24883 0.402167,1.24883 0.07408,0 0.179917,-0.29633 0.116416,-0.29633 0.254,-0.78317 0.137583,-0.49741 0.264583,-1.09008 0.127,-0.59267 0.22225,-1.19592 -0.127,-0.77258 -0.169333,-1.22766 l 1.788583,-0.0635 v 0.127 q 0,0.43391 0.0635,1.016 0.0635,0.58208 0.15875,1.2065 0.09525,0.61383 0.201083,1.143 0.116417,0.52916 0.22225,0.85725 0.105834,0.32808 0.179917,0.32808 0.0635,0 0.179917,-0.28575 0.116416,-0.28575 0.254,-0.78317 0.148166,-0.49741 0.296333,-1.13241 0.148167,-0.64559 0.28575,-1.35467 0.137583,-0.71967 0.22225,-1.42875 l 1.74625,0.37042 q -0.179917,1.00541 -0.433917,2.00025 -0.243416,0.98425 -0.518583,1.83091 -0.275167,0.83609 -0.53975,1.40759 -0.592667,1.25941 -1.471083,1.25941 -0.28575,0 -0.656167,-0.17991 -0.359833,-0.16934 -0.66675,-0.71967 -0.105833,-0.20108 -0.211667,-0.48683 -0.105833,-0.28575 -0.201083,-0.635 -0.127,0.39158 -0.254,0.6985 -0.560917,1.3335 -1.439333,1.3335 z"/></svg>
